{
	"asset":{
		"version":"2.0",
		"generator":"Maxon Cinema 4D 2023.2.0 (#200000219)"
	},
	"scenes":[{
		"nodes":[0]
	}],
	"nodes":[{
		"name":"Default",
		"mesh":0
	}],
	"meshes":[{
		"name":"Default",
		"primitives":[{
			"attributes":{
				"POSITION":1,
				"NORMAL":2,
				"TEXCOORD_0":3
			},
			"indices":0,
			"material":0
		}]
	}],
	"accessors":[{
		"bufferView":0,
		"type":"SCALAR",
		"count":249000,
		"componentType":5123,
		"byteOffset":0,
		"min":[0],
		"max":[46295]
	},
	{
		"bufferView":1,
		"type":"VEC3",
		"count":46296,
		"componentType":5126,
		"byteOffset":0,
		"min":[-8.943634033203125,
		0.0,
		-8.943634033203125],
		"max":[8.943634033203125,
		12.195895195007325,
		8.943634033203125]
	},
	{
		"bufferView":1,
		"type":"VEC3",
		"count":46296,
		"componentType":5126,
		"byteOffset":12,
		"min":[-1.0,
		-1.0,
		-1.0],
		"max":[1.0,
		1.0,
		1.0]
	},
	{
		"bufferView":1,
		"type":"VEC2",
		"count":46296,
		"componentType":5126,
		"byteOffset":24,
		"min":[0.0,
		0.06266629695892334],
		"max":[0.99853515625,
		1.0]
	}],
	"bufferViews":[{
		"byteLength":498000,
		"buffer":0,
		"byteOffset":0,
		"target":34963
	},
	{
		"byteLength":1481472,
		"buffer":0,
		"byteOffset":498000,
		"target":34962,
		"byteStride":32
	}],
	"buffers":[{
		"uri":"data:application/octet-stream;base64,",
		"byteLength":1979472
	}],
	"materials":[{
		"pbrMetallicRoughness":{
			"baseColorFactor":[0.9,
			0.9,
			0.9,
			1.0],
			"metallicFactor":1.0,
			"roughnessFactor":1.0
		},
		"emissiveFactor":[0.0,
		0.0,
		0.0],
		"alphaMode":"OPAQUE",
		"doubleSided":false,
		"name":"diffuse_0_0_0_255"
	}]
}